<svg width="20" height="20" viewBox="0 0 20 20" fill="none" xmlns="http://www.w3.org/2000/svg">
<path d="M8.16675 10.9167C8.56041 11.4429 9.06266 11.8784 9.63942 12.1935C10.2162 12.5086 10.854 12.696 11.5095 12.743C12.1651 12.7899 12.823 12.6953 13.4388 12.4656C14.0546 12.2359 14.6138 11.8765 15.0784 11.4117L17.8284 8.66166C18.6633 7.79723 19.1253 6.63947 19.1148 5.43773C19.1044 4.236 18.6224 3.08644 17.7726 2.23665C16.9228 1.38687 15.7732 0.904842 14.5715 0.894399C13.3698 0.883957 12.212 1.34593 11.3476 2.18082L9.77091 3.74832" stroke="#202020" stroke-linecap="round" stroke-linejoin="round"/>
<path d="M11.8333 9.08338C11.4396 8.55709 10.9374 8.12163 10.3606 7.80652C9.78384 7.4914 9.14606 7.30402 8.49051 7.25707C7.83496 7.21012 7.17698 7.30471 6.56121 7.53441C5.94543 7.76411 5.38625 8.12356 4.92161 8.58838L2.17161 11.3384C1.33671 12.2028 0.87474 13.3606 0.885183 14.5623C0.895626 15.764 1.37765 16.9136 2.22744 17.7634C3.07722 18.6132 4.22678 19.0952 5.42852 19.1056C6.63025 19.1161 7.78801 18.6541 8.65244 17.8192L10.2199 16.2517" stroke="#202020" stroke-linecap="round" stroke-linejoin="round"/>
</svg>
